<svg id="Layer_1" data-name="Layer 1" xmlns="http://www.w3.org/2000/svg" viewBox="0 0 397.32 267.22"><defs><style>.cls-1{fill:#fcf489;}.cls-2{fill:#fe8ba9;}</style></defs><path class="cls-1" d="M1067.48,477.64a233.36,233.36,0,0,1,26.46,2.34c7.17,1.18,14.49,1.75,21.63,3.24,8.84,1.84,17.84,2.81,26.58,5.21A39.89,39.89,0,0,1,1152,493c.47.28,1.18.51,1,1.16,0,.2-.94.35-1.41.29-14.23-1.9-28.58-2.41-42.89-2.88-15.3-.51-30.63-.09-45.94.74-7.36.4-14.66,1.29-22,2.27-1.46.2-3,0-4.43.25-3.31.48-5.47-1.7-5.2-4.17.31-2.9-.22-6.23,2-8.85,8.72-10.33,18.65-19.42,28.79-28.33,9.76-8.58,19.91-16.66,30.13-24.65a307.77,307.77,0,0,1,33.45-23.05,139.6,139.6,0,0,1,23.15-11.21c.69-.25,1.61-.9,2,0,.29.63-.75,1-1.27,1.38-4.4,3.21-9.31,5.82-13.12,9.71-7.43,7.58-15,15-23,22-7,6.11-13.85,12.29-20.83,18.38a243.72,243.72,0,0,0-28.17,29.65c-.34.41-.85,1-.74,1.38.24.77,1.14.48,1.77.57A13.86,13.86,0,0,0,1067.48,477.64Z" transform="translate(-762.02 -394.1)"/><path class="cls-1" d="M798.51,564c.27-3.65,3.11-5.67,5.37-7.88C808.1,552,813.19,549,818.22,546c7.77-4.62,15.07-10,23-14.32,8.81-4.82,17.16-10.52,26.66-14,.93-.35,1.67-1.2,2.61-1.53,1.55-.55,4-.67,4.19-2.11s-2.33-1.93-3.64-2.59c-7.75-3.9-15.52-7.81-23.51-11.18-15.12-6.38-31-10.66-46.3-16.65-6.17-2.42-12.28-4.89-18.29-7.72-5.65-2.66-12-3.28-18-4.9-1-.27-2.37.18-2.92-1.23,1-.12,2-.31,3-.34,12.29-.32,24.39,1.34,36.44,3.55a317.43,317.43,0,0,1,31.21,7.59c9.2,2.68,18.41,5.37,27.52,8.41,10.51,3.5,20.87,7.34,31.2,11.28a76.06,76.06,0,0,1,14,7.24,11.27,11.27,0,0,1,4.88,9.3c.08,2-1.8,2.82-3.37,3.3-6.57,2-13.19,3.87-19.79,5.77-6.37,1.82-12.57,4.14-18.76,6.49-8.73,3.31-17.41,6.74-26.19,9.93a101.75,101.75,0,0,0-17.88,8.64c-6.4,3.88-13.62,6-20.23,9.49a64.22,64.22,0,0,0-5.64,3.69Z" transform="translate(-762.02 -394.1)"/><path class="cls-1" d="M987.34,660.14c-6.43,1.5-13.05,1.19-19.66,1.06-7.08-.12-13.7-2.53-20.52-4a68.05,68.05,0,0,1-19.36-7.78,59,59,0,0,1-21.66-20.09c-1.27-2-2.78-3.87-4.13-5.83-.71-1-.59-1.47.88-1.58a4.21,4.21,0,0,1,3.34,1.18,115.18,115.18,0,0,0,33,20.91A91.68,91.68,0,0,0,965,650.43c12.1,1.15,24.23,1.9,36.22-.77,6.57-1.46,12.75-4.17,18.91-6.86a111.74,111.74,0,0,0,25.47-15,100.48,100.48,0,0,0,20.77-23,137.7,137.7,0,0,0,8.54-14.62,3.88,3.88,0,0,1,1.16-1.65,3.54,3.54,0,0,1,2.46-.66c.89.29.45,1.42.23,2.12-2.7,8.59-4.25,17.32-9.2,25.43-10.28,16.87-25.15,27.71-42.54,35.41-11.33,5-23.62,7.39-36,8.91C989.86,659.91,988.75,660.82,987.34,660.14Z" transform="translate(-762.02 -394.1)"/><path class="cls-2" d="M1158.94,551.37c0,8.92-3.57,15.36-10.09,20.65a27.6,27.6,0,0,1-15.66,5.83c-7.06.57-14.37-.68-17.82-7.8a16.52,16.52,0,0,1,.07-15.1,58.08,58.08,0,0,1,12.47-15.78c6.91-6.26,14.87-6.75,23.16-3.22,4.74,2,6.36,6.58,7.31,11.09C1158.68,548.5,1160,550.2,1158.94,551.37Z" transform="translate(-762.02 -394.1)"/><path class="cls-2" d="M812.21,611.55c-.42-6.8,3.23-11.44,8.5-14.38,10-5.6,18.27-1.45,26.82,3.16a32.83,32.83,0,0,1,10.77,8.88c4.64,6,3.09,17.15-3.35,20.95-5.1,3-10.81,5.18-16.75,5.11a26.57,26.57,0,0,1-20.12-8.86A24.13,24.13,0,0,1,812.21,611.55Z" transform="translate(-762.02 -394.1)"/><path class="cls-1" d="M798.36,564l.11-.15h-.13l.17.11Z" transform="translate(-762.02 -394.1)"/></svg>